<svg width="44" height="44" viewBox="0 0 44 44" fill="none" xmlns="http://www.w3.org/2000/svg">
<g clip-path="url(#clip0_1_1055)">
<rect width="44" height="44" rx="22" fill="white" fill-opacity="0.2"/>
<path d="M17.2891 14.2734C17.3516 13.5781 17.7812 13.1953 18.5234 13.1953H25.4688C26.2109 13.1953 26.6484 13.5781 26.7031 14.2734H17.2891ZM15.8125 16.5234C15.9062 15.7891 16.3047 15.3438 17.1484 15.3438H26.8438C27.6953 15.3438 28.0859 15.7891 28.1875 16.5234H15.8125ZM16.7344 30.125C15.125 30.125 14.2578 29.2578 14.2578 27.6641V20.2031C14.2578 18.6094 15.125 17.7422 16.7344 17.7422H27.25C28.8594 17.7422 29.7266 18.6172 29.7266 20.2031V27.6641C29.7266 29.2578 28.8594 30.125 27.25 30.125H16.7344Z" fill="white" fill-opacity="0.9"/>
</g>
<defs>
<clipPath id="clip0_1_1055">
<rect width="44" height="44" rx="22" fill="white"/>
</clipPath>
</defs>
</svg>
