<svg width="16" height="18" viewBox="0 0 16 18" fill="none" xmlns="http://www.w3.org/2000/svg">
<path d="M3.28906 1.27344C3.35156 0.578125 3.78125 0.195312 4.52344 0.195312H11.4688C12.2109 0.195312 12.6484 0.578125 12.7031 1.27344H3.28906ZM1.8125 3.52344C1.90625 2.78906 2.30469 2.34375 3.14844 2.34375H12.8438C13.6953 2.34375 14.0859 2.78906 14.1875 3.52344H1.8125ZM2.73438 17.125C1.125 17.125 0.257812 16.2578 0.257812 14.6641V7.20312C0.257812 5.60938 1.125 4.74219 2.73438 4.74219H13.25C14.8594 4.74219 15.7266 5.61719 15.7266 7.20312V14.6641C15.7266 16.2578 14.8594 17.125 13.25 17.125H2.73438Z" fill="white" fill-opacity="0.9"/>
</svg>
